<svg xmlns="http://www.w3.org/2000/svg" viewBox="0, 0, 400, 200">
   <ellipse stroke-width="2" stroke="black" cx="210" cy="24" rx="40" ry="20" fill="none"/>
   <path d="M200.418 45.249 C 200.250 45.417,196.881 45.869,192.931 46.254 C 163.562 49.114,153.409 56.012,147.015 77.452 C 145.587 82.238,142.942 90.450,141.137 95.702 C 133.198 118.792,133.776 124.026,146.256 142.000 L 148.860 145.750 144.454 152.000 C 124.736 179.971,128.667 188.625,161.428 189.359 C 186.742 189.927,202.908 185.409,209.175 176.014 C 209.629 175.334,210.000 175.028,210.000 175.335 C 210.000 177.601,217.274 183.116,222.746 184.999 C 238.826 190.531,268.455 191.184,279.368 186.246 C 290.768 181.088,289.725 172.824,275.046 152.000 L 270.640 145.750 273.244 142.000 C 285.724 124.026,286.302 118.792,278.363 95.702 C 276.558 90.450,273.913 82.238,272.485 77.452 C 266.105 56.059,256.587 49.546,226.750 46.156 C 219.576 45.341,200.967 44.700,200.418 45.249 M229.750 48.258 C 255.202 51.419,264.051 57.738,269.743 76.816 C 271.045 81.180,273.454 88.688,275.097 93.500 C 283.720 118.764,283.401 122.937,271.502 140.463 C 268.335 145.128,267.731 146.310,268.299 146.731 C 269.608 147.701,278.437 160.732,280.678 165.000 C 287.840 178.640,285.445 183.710,270.250 187.081 C 265.022 188.241,244.148 187.931,236.513 186.579 C 217.242 183.169,211.000 178.263,211.000 166.531 L 211.000 161.500 209.750 161.500 L 208.500 161.500 208.500 166.531 C 208.500 178.263,202.258 183.169,182.987 186.579 C 175.352 187.931,154.478 188.241,149.250 187.081 C 134.055 183.710,131.660 178.640,138.822 165.000 C 141.063 160.732,149.892 147.701,151.201 146.731 C 151.769 146.310,151.165 145.128,147.998 140.463 C 136.099 122.937,135.780 118.764,144.403 93.500 C 146.046 88.688,148.455 81.180,149.757 76.816 C 155.568 57.340,165.107 50.838,192.000 48.021 C 202.887 46.881,219.504 46.985,229.750 48.258"/>
   <line stroke-width="2" stroke="black" x1="30" y1="180" x2="133" y2="180" />
   <line stroke-width="2" stroke="black" x1="285" y1="180" x2="370" y2="180" />
</svg>